<?xml version="1.0" encoding="utf-8"?>
<!-- Generator: Adobe Illustrator 19.0.0, SVG Export Plug-In . SVG Version: 6.00 Build 0)  -->
<svg version="1.1" id="Layer_1" xmlns="http://www.w3.org/2000/svg" xmlns:xlink="http://www.w3.org/1999/xlink" x="0px" y="0px"
	 viewBox="0 0 219 219" style="enable-background:new 0 0 219 219;" xml:space="preserve">
<style type="text/css">
	.st0{fill:#FFFFFF;}
</style>
<polygon id="XMLID_8_" class="st0" points="164,82 164,137 192,137 192,164 219,164 219,219 164,219 164,192 137,192 137,164 
	82,164 82,192 55,192 55,219 0,219 0,164 27,164 27,137 55,137 55,82 27,82 27,55 0,55 0,0 55,0 55,27 82,27 82,55 137,55 137,27 
	164,27 164,0 219,0 219,55 192,55 192,82 "/>
</svg>
