<?xml version="1.0" encoding="utf-8"?>
<!-- Generator: Adobe Illustrator 19.0.0, SVG Export Plug-In . SVG Version: 6.00 Build 0)  -->
<svg version="1.1" id="Layer_1" xmlns="http://www.w3.org/2000/svg" xmlns:xlink="http://www.w3.org/1999/xlink" x="0px" y="0px"
	 viewBox="-202 332.1 190.8 177.8" style="enable-background:new -202 332.1 190.8 177.8;" xml:space="preserve">
<style type="text/css">
	.st0{fill:#252525;}
</style>
<g id="XMLID_1_">
	<path id="XMLID_26_" class="st0" d="M-74,429.8l-32.6-97.7l-32.6,97.7l-62.8-33.7l21,71.2l70.2,40.2l4.2,2.4l4-2.3l0,0l70.4-40.3
		l21-71.2L-74,429.8z M-76.2,473.7l-30.4,17.7l-30.4-17.7l6.9-20.8l23.5,12.6l23.5-12.6L-76.2,473.7z M-106.6,382.6l18.3,54.9
		l-18.3,9.8l-18.3-9.8L-106.6,382.6z M-175.8,428.3l31.4,16.9l-6.9,20.6l-16.2-9.3L-175.8,428.3z M-45.8,456.6l-16.2,9.3l-6.9-20.6
		l31.4-16.9L-45.8,456.6z"/>
	<polygon id="XMLID_10_" class="st0" points="-102.7,507.6 -106.6,509.9 -110.8,507.5 -106.6,509.9 	"/>
</g>
</svg>
