<?xml version="1.0" encoding="utf-8"?>
<!-- Generator: Adobe Illustrator 19.0.0, SVG Export Plug-In . SVG Version: 6.00 Build 0)  -->
<svg version="1.1" id="Layer_1" xmlns="http://www.w3.org/2000/svg" xmlns:xlink="http://www.w3.org/1999/xlink" x="0px" y="0px"
	 viewBox="0 0 407.6 91.7" style="enable-background:new 0 0 407.6 91.7;" xml:space="preserve">
<g id="XMLID_2_">
	<polygon id="XMLID_16_" points="86.1,90.4 50.9,90.4 29.7,62.4 29.6,90.4 0,90.4 0,1.3 29.6,1.3 29.7,29.7 50.9,1.3 86,1.3 
		49.8,46.3 	"/>
</g>
<rect id="XMLID_15_" x="92.5" y="1.3" width="29" height="89.1"/>
<path id="XMLID_20_" d="M254.2,44.9v0.2c0,10.5,7.8,19,17.5,19c2.5,0,4.8-0.5,6.9-1.5V45.8h29v29.3c-3,3.5-6.4,6.5-10.3,9
	c-7.3,4.7-16.1,7.5-25.5,7.5c-25.7,0-46.6-20.5-46.6-45.8S246,0,271.8,0c2.3,0,4.6,0.2,6.8,0.5c11.6,1.7,21.8,7.5,29,16c0,0,0,0,0,0
	l0,0l-16.8,13.1l-2,1.6l-3.1,2.4c-3.2-4.6-8.2-7.5-13.9-7.6h-0.1C262.1,26.1,254.3,34.5,254.2,44.9z"/>
<path id="XMLID_21_" d="M361.1,0c-25.7,0-46.5,20.5-46.5,45.8s20.8,45.8,46.5,45.8c25.7,0,46.5-20.5,46.5-45.8S386.8,0,361.1,0z
	 M361.1,64.9c-9.9,0-17.8-8.6-17.8-19.1c0-10.6,8-19.1,17.8-19.1c9.9,0,17.8,8.6,17.8,19.1C379,56.4,371,64.9,361.1,64.9z"/>
<polygon id="XMLID_17_" points="219.2,1.3 219.2,90.4 188.3,90.4 159,49.3 159,90.4 130.1,90.4 130.1,1.3 160.5,1.3 190.2,43 
	190.2,1.3 "/>
<rect id="XMLID_3_" x="0" y="1.3" width="0" height="0"/>
</svg>
